<svg t="1725246668493" class="icon" viewBox="0 0 1740 1024" version="1.1" xmlns="http://www.w3.org/2000/svg" p-id="22588" width="16" height="16"><path d="M100.352 0.4096h738.304v143.36H268.0832v283.8528h536.1664v143.36H268.0832V880.64h594.944V1024H100.352V0.4096z m1288.8064 262.3488c184.9344 0 278.1184 100.352 278.1184 303.9232V1024h-163.4304V581.0176c0-121.856-55.9104-182.0672-167.7312-182.0672-40.1408 0-75.9808 14.336-106.0864 43.008-34.4064 31.5392-54.4768 77.4144-60.2112 136.192V1024H1006.3872V282.8288h163.4304v86.016c28.672-34.4064 61.6448-61.6448 97.4848-78.848a266.752 266.752 0 0 1 121.856-27.2384z" fill="#616161" p-id="22589"></path></svg>