<svg t="1725973103873" class="icon" viewBox="0 0 1024 1024" version="1.1" xmlns="http://www.w3.org/2000/svg" p-id="21246" width="16" height="16"><path d="M859.904 763.605333h-87.808v-87.808a36.138667 36.138667 0 0 0-72.192 0v87.808h-87.808a36.138667 36.138667 0 0 0 0 72.192h87.808v87.808a36.138667 36.138667 0 0 0 72.192 0v-87.808h87.808a36.138667 36.138667 0 0 0 0-72.192zM736 288.512A224.256 224.256 0 0 0 512 64c-123.733333 0-224 100.48-224 224.512A224.256 224.256 0 0 0 512 512.981333c123.733333 0 224-100.48 224-224.469333zM512 440.832a152.192 152.192 0 0 1-152.021333-152.32A152.192 152.192 0 0 1 512 136.192a152.192 152.192 0 0 1 152.021333 152.32A152.192 152.192 0 0 1 512 440.832z m210.005333 134.784A381.610667 381.610667 0 0 0 512 512.981333c-212.096 0-384 172.330667-384 384.938667h0.085333L128 899.84c0 19.925333 16.085333 36.096 36.010667 36.096 19.882667 0 36.010667-16.213333 36.010666-36.096 0-0.682667 0-1.28-0.128-1.962667h0.128c0-172.714667 139.690667-312.746667 311.978667-312.746666a308.48 308.48 0 0 1 111.189333 20.522666 221.909333 221.909333 0 0 1 98.816-30.08z" fill="#616161" opacity=".65" p-id="21247"></path></svg>