<?xml version="1.0" encoding="UTF-8"?>
<svg width="16px" height="16px" viewBox="0 0 16 16" version="1.1" xmlns="http://www.w3.org/2000/svg" xmlns:xlink="http://www.w3.org/1999/xlink">
    <title>编组 17</title>
    <g id="授权流程优化-✅" stroke="none" stroke-width="1" fill="none" fill-rule="evenodd">
        <g id="编组-17">
            <path d="M12.6688867,3.66 C13.9563728,3.66 15,4.70376555 15,5.99111329 L15,10.0584239 C15,11.3457717 13.9563728,12.3893989 12.6688867,12.3893989 L9.58268249,12.3893989 L10.3275377,11.3356743 L12.5774569,10.6462855 C12.9943546,10.5143279 13.2599297,10.1277224 13.2571633,9.70957995 L13.2570249,6.33732919 C13.2599297,5.92181478 12.9943546,5.53520933 12.5774569,5.40325169 L10.3275377,4.71386294 L9.58268249,3.66 Z M6.41731751,3.66 L5.67246229,4.71386294 L3.42254306,5.40325169 C3.00564545,5.53520933 2.74020865,5.92181478 2.74297505,6.33732919 L2.74283673,9.70957995 C2.74020865,10.1277224 3.00564545,10.5143279 3.42254306,10.6462855 L5.67246229,11.3356743 L6.41731751,12.3893989 L3.33111329,12.3893989 C2.04362723,12.3893989 1,11.3457717 1,10.0584239 L1,5.99111329 C1,4.70376555 2.04362723,3.66 3.33111329,3.66 L6.41731751,3.66 Z M10.3321714,7.47581654 L10.3321714,8.52746636 L5.66787005,8.52746636 L5.66787005,7.47581654 L10.3321714,7.47581654 Z" id="Logo" fill="#FE6A00"></path>
        </g>
    </g>
</svg>