<svg t="1725973172766" class="icon" viewBox="0 0 1024 1024" version="1.1" xmlns="http://www.w3.org/2000/svg" p-id="21412" width="16" height="16"><path d="M892.811 755.27h-102.22V653.05a34.836 34.836 0 0 0-69.673 0v102.22H618.599a34.836 34.836 0 0 0 0 69.674h102.22v102.214a34.836 34.836 0 0 0 69.674 0V824.944h102.214a34.837 34.837 0 0 0 0.1-69.674z" p-id="21413" fill="#8a8a8a"></path><path d="M498.164 867.146H166.223v-5.675c0.298-190.206 155.17-344.781 345.18-344.781a343.063 343.063 0 0 1 199.562 63.503 34.839 34.839 0 1 0 40.31-56.833 410.42 410.42 0 0 0-121.23-59.123 218.332 218.332 0 1 0-272.122-29.566 222.284 222.284 0 0 0 36.031 29.164 419.894 419.894 0 0 0-43.893 15.725A414.448 414.448 0 0 0 96.45 861.175v40.708a34.874 34.874 0 0 0 34.836 34.836h366.777a34.787 34.787 0 0 0 0.1-69.573z m14.134-735.448A148.702 148.702 0 1 1 363.597 280.4a148.845 148.845 0 0 1 148.701-148.7z" p-id="21414" fill="#616161"></path></svg>