<?xml version="1.0" encoding="UTF-8"?>
<svg width="12px" height="12px" viewBox="0 0 12 12" version="1.1" xmlns="http://www.w3.org/2000/svg" xmlns:xlink="http://www.w3.org/1999/xlink">
    <title>12X12</title>
    <g id="12X12" stroke="none" stroke-width="1" fill="none" fill-rule="evenodd">
        <g id="阿里云logo备份" transform="translate(0, 2.2588)" fill="#FE6A00" fill-rule="nonzero">
            <path d="M10.0019029,0 C11.1054624,0 12,0.894656186 12,1.99809711 L12,5.48436334 C12,6.58780431 11.1054624,7.48234191 10.0019029,7.48234191 L7.35658499,7.48234191 L7.99503231,6.5791494 L9.92353449,5.98824471 C10.2808754,5.8751382 10.5085112,5.54376206 10.50614,5.18535424 L10.5060213,2.29485359 C10.5085112,1.93869838 10.2808754,1.60732228 9.92353449,1.49421573 L7.99503231,0.903311091 L7.35658499,0 L10.0019029,0 Z M4.64341501,0 L4.00496768,0.903311091 L2.07646548,1.49421573 C1.71912467,1.60732228 1.49160741,1.93869838 1.49397861,2.29485359 L1.49386005,5.18535424 C1.49160741,5.54376206 1.71912467,5.8751382 2.07646548,5.98824471 L4.00496768,6.5791494 L4.64341501,7.48234191 L1.99809711,7.48234191 C0.894537626,7.48234191 0,6.58780431 0,5.48436334 L0,1.99809711 C0,0.894656186 0.894537626,0 1.99809711,0 L4.64341501,0 Z M7.99900406,3.27069989 L7.99900406,4.17211402 L4.00103147,4.17211402 L4.00103147,3.27069989 L7.99900406,3.27069989 Z" id="Logo"></path>
        </g>
    </g>
</svg>