<?xml version="1.0" encoding="UTF-8"?>
<svg width="13px" height="13px" viewBox="0 0 13 13" version="1.1" xmlns="http://www.w3.org/2000/svg" xmlns:xlink="http://www.w3.org/1999/xlink">
    <title>13X13</title>
    <g id="13X13" stroke="none" stroke-width="1" fill="none" fill-rule="evenodd">
        <g id="阿里云logo备份-2" transform="translate(0, 2.4471)" fill="#FE6A00" fill-rule="nonzero">
            <path d="M10.8353948,0 C12.0309176,0 13,0.969210868 13,2.1646052 L13,5.94139362 C13,7.13678801 12.0309176,8.10587041 10.8353948,8.10587041 L7.96963374,8.10587041 L8.66128501,7.12741185 L10.7504957,6.48726511 C11.137615,6.36473305 11.3842204,6.00574223 11.3816516,5.6174671 L11.3815231,2.48609139 C11.3842204,2.10025658 11.137615,1.74126581 10.7504957,1.61873371 L8.66128501,0.978587016 L7.96963374,0 L10.8353948,0 Z M5.03036626,0 L4.33871498,0.978587016 L2.24950427,1.61873371 C1.86238506,1.74126581 1.61590803,2.10025658 1.61847683,2.48609139 L1.61834839,5.6174671 C1.61590803,6.00574223 1.86238506,6.36473305 2.24950427,6.48726511 L4.33871498,7.12741185 L5.03036626,8.10587041 L2.1646052,8.10587041 C0.969082428,8.10587041 0,7.13678801 0,5.94139362 L0,2.1646052 C0,0.969210868 0.969082428,0 2.1646052,0 L5.03036626,0 Z M8.66558773,3.54325822 L8.66558773,4.51979019 L4.33445076,4.51979019 L4.33445076,3.54325822 L8.66558773,3.54325822 Z" id="Logo"></path>
        </g>
    </g>
</svg>