<svg t="1725247255944" class="icon" viewBox="0 0 1024 1024" version="1.1" xmlns="http://www.w3.org/2000/svg" p-id="36786" id="mx_n_1725247255945" width="16" height="16"><path d="M-117.21805494-167.15220894a57.20164137 57.20164137 0 0 0-57.20164135 57.20164137V1119.88472161a57.20164137 57.20164137 0 0 0 57.20164135 57.20164135h1229.83528918a57.20164137 57.20164137 0 0 0 57.20164137-57.20164135V-109.95056757a57.20164137 57.20164137 0 0 0-57.20164137-57.20164137H-117.21805494z m0-114.4032827h1229.83528918a171.60492409 171.60492409 0 0 1 171.60492407 171.60492407V1119.88472161a171.60492409 171.60492409 0 0 1-171.60492407 171.60492409H-117.21805494a171.60492409 171.60492409 0 0 1-171.60492409-171.60492409V-109.95056757a171.60492409 171.60492409 0 0 1 171.60492409-171.60492407z" p-id="36787" fill="#616161"></path><path d="M458.68807025 44.26505751h106.56665785v168.74484201h350.36005331v427.35346258h-350.36005331v329.65305913h-106.56665785v-329.65305913H109.30044484v-427.29626094h349.38762541V44.20785586z m-245.79545291 495.42341582h245.79545291v-225.94648339H212.8354157v225.94648339z m352.36211076 0h246.76788081v-225.94648339H565.19752647v225.94648339z" p-id="36788" fill="#8a8a8a"></path></svg>